<?xml version="1.0" encoding="utf-8"?>
<!-- Generator: Adobe Illustrator 24.0.3, SVG Export Plug-In . SVG Version: 6.00 Build 0)  -->
<svg version="1.1" id="Layer_1" xmlns="http://www.w3.org/2000/svg" xmlns:xlink="http://www.w3.org/1999/xlink" x="0px" y="0px"
	 viewBox="0 0 569.86 148.55" style="enable-background:new 0 0 569.86 148.55;" xml:space="preserve">
<style type="text/css">
	.Arched_x0020_Green{fill:url(#SVGID_1_);stroke:#FFFFFF;stroke-width:0.25;stroke-miterlimit:1;}
	.st0{fill:#BABCBE;}
	.st1{fill:#A30046;}
	.st2{fill:#FFFFFF;}
</style>
<linearGradient id="SVGID_1_" gradientUnits="userSpaceOnUse" x1="-16.9811" y1="491.5821" x2="-16.274" y2="490.875">
	<stop  offset="0" style="stop-color:#20AC4B"/>
	<stop  offset="0.9831" style="stop-color:#19361A"/>
</linearGradient>
<g>
	<path class="st0" d="M128.67,130.5h-6.3v3.97h6.3v3.26h-6.3v7.31h-3.57v-17.81h9.87V130.5z"/>
	<path class="st0" d="M150.81,145.05h-10.92v-17.81h3.57v14.54h7.35V145.05z"/>
	<path class="st0" d="M168.8,145.28c-5.25,0-8.21-4.59-8.21-9.14c0-4.31,2.81-9.14,8.21-9.14c5.4,0,8.19,4.86,8.19,9.14
		C176.99,140.71,173.95,145.28,168.8,145.28z M168.8,130.71c-2.73,0-4.54,2.17-4.54,5.43c0,3.26,1.81,5.43,4.54,5.43
		c2.71,0,4.51-2.17,4.51-5.43C173.32,132.88,171.51,130.71,168.8,130.71z"/>
	<path class="st0" d="M195.58,145.28c-5.25,0-8.21-4.59-8.21-9.14c0-4.31,2.81-9.14,8.21-9.14c5.4,0,8.19,4.86,8.19,9.14
		C203.77,140.71,200.72,145.28,195.58,145.28z M195.58,130.71c-2.73,0-4.54,2.17-4.54,5.43c0,3.26,1.81,5.43,4.54,5.43
		c2.71,0,4.51-2.17,4.51-5.43C200.09,132.88,198.29,130.71,195.58,130.71z"/>
	<path class="st0" d="M221.16,127.24c2.94,0,4.68,2.46,4.68,5.12c0,1.96-0.82,3.42-2.46,4.36c1.47,0.91,1.91,3.11,3.93,8.33h-3.93
		c-1.53-3.81-2.1-7.23-4.03-7.23h-1.03v7.23h-3.57v-17.81H221.16z M218.32,134.55h1.89c0.99,0,1.95-0.52,1.95-2.04
		c0-1.33-0.69-2.01-2.04-2.01h-1.81V134.55z"/>
	<path class="st0" d="M241.07,145.05h-3.57v-17.81h3.57V145.05z"/>
	<path class="st0" d="M267.27,145.05h-3l-7.92-11.41v11.41h-3.57v-17.81h3.28l7.64,10.89v-10.89h3.57V145.05z"/>
	<path class="st0" d="M292.56,132.36c-1.83-1.1-3.59-1.64-5.35-1.64c-3.88,0-5.25,2.98-5.25,5.61c0,3.16,1.99,5.25,4.96,5.25
		c0.88,0,1.32-0.1,2.37-0.63v-2.09h-2.08v-3.26h5.65v7.28c-1.07,1.38-3.72,2.4-6.03,2.4c-5,0-8.55-3.79-8.55-9.11
		c0-5.43,3.53-9.16,8.63-9.16c2.14,0,4.22,0.6,5.65,1.46V132.36z"/>
	<path class="st0" d="M328.22,131.86c-2.08-1.15-3.32-1.59-4.54-1.59c-1.28,0-2.1,0.57-2.1,1.46c0,2.69,7.29,1.93,7.29,8.15
		c0,3.42-2.31,5.4-5.5,5.4c-2.5,0-3.74-0.81-5.17-1.72v-3.84c2.06,1.7,3.32,2.3,4.89,2.3c1.37,0,2.1-0.6,2.1-1.64
		c0-2.92-7.29-1.85-7.29-8.25c0-3.08,2.14-5.12,5.46-5.12c1.6,0,3.04,0.42,4.85,1.38V131.86z"/>
	<path class="st0" d="M347.29,145.28c-5.25,0-8.21-4.59-8.21-9.14c0-4.31,2.81-9.14,8.21-9.14c5.4,0,8.19,4.86,8.19,9.14
		C355.48,140.71,352.43,145.28,347.29,145.28z M347.29,130.71c-2.73,0-4.54,2.17-4.54,5.43c0,3.26,1.81,5.43,4.54,5.43
		c2.71,0,4.51-2.17,4.51-5.43C351.8,132.88,350,130.71,347.29,130.71z"/>
	<path class="st0" d="M377.38,145.05h-10.92v-17.81h3.57v14.54h7.35V145.05z"/>
	<path class="st0" d="M401.97,127.24v10.1c0,5.9-3.23,7.94-7.16,7.94c-4.16,0-7.16-2.4-7.16-7.91v-10.13h3.57v10.23
		c0,2.56,1.49,4.1,3.55,4.1c1.89,0,3.63-1.23,3.63-4.41v-9.92H401.97z"/>
	<path class="st0" d="M426.4,130.5h-5.19v14.54h-3.57V130.5h-5.19v-3.26h13.94V130.5z"/>
	<path class="st0" d="M440.66,145.05h-3.57v-17.81h3.57V145.05z"/>
	<path class="st0" d="M459.96,145.28c-5.25,0-8.21-4.59-8.21-9.14c0-4.31,2.81-9.14,8.21-9.14c5.4,0,8.19,4.86,8.19,9.14
		C468.14,140.71,465.1,145.28,459.96,145.28z M459.96,130.71c-2.73,0-4.54,2.17-4.54,5.43c0,3.26,1.81,5.43,4.54,5.43
		c2.71,0,4.51-2.17,4.51-5.43C464.47,132.88,462.66,130.71,459.96,130.71z"/>
	<path class="st0" d="M493.64,145.05h-3l-7.92-11.41v11.41h-3.57v-17.81h3.28l7.64,10.89v-10.89h3.57V145.05z"/>
	<path class="st0" d="M514.87,131.86c-2.08-1.15-3.32-1.59-4.54-1.59c-1.28,0-2.1,0.57-2.1,1.46c0,2.69,7.29,1.93,7.29,8.15
		c0,3.42-2.31,5.4-5.5,5.4c-2.5,0-3.74-0.81-5.16-1.72v-3.84c2.06,1.7,3.32,2.3,4.89,2.3c1.36,0,2.1-0.6,2.1-1.64
		c0-2.92-7.29-1.85-7.29-8.25c0-3.08,2.14-5.12,5.46-5.12c1.6,0,3.04,0.42,4.85,1.38V131.86z"/>
</g>
<g>
	<path class="st0" d="M177.2,59.15c0,20.03-13.6,34.15-32.41,34.15c-18.81,0-32.41-14.12-32.41-34.15
		c0-18.72,15.55-31.85,32.41-31.85S177.2,40.43,177.2,59.15z M128.23,59.23c0,10.67,7.46,18.47,16.56,18.47
		c9.09,0,16.56-7.8,16.56-18.47c0-8.54-7.46-16.34-16.56-16.34C135.69,42.89,128.23,50.69,128.23,59.23z"/>
	<path class="st0" d="M226.16,50.12c-3.11-4.43-8.16-6.81-13.37-6.81c-9.33,0-15.62,7.55-15.62,17.16c0,9.77,6.37,16.83,15.86,16.83
		c4.97,0,9.95-2.54,13.14-6.57v19.29c-5.05,1.64-8.71,2.87-13.45,2.87c-8.16,0-15.93-3.28-22-9.11c-6.45-6.16-9.41-14.2-9.41-23.4
		c0-8.46,3.03-16.58,8.63-22.66c5.75-6.24,14.07-10.02,22.31-10.02c4.9,0,9.4,1.15,13.91,3.12V50.12z"/>
	<path class="st0" d="M277.46,50.12c-3.11-4.43-8.16-6.81-13.37-6.81c-9.33,0-15.62,7.55-15.62,17.16c0,9.77,6.37,16.83,15.86,16.83
		c4.97,0,9.95-2.54,13.14-6.57v19.29c-5.05,1.64-8.71,2.87-13.45,2.87c-8.16,0-15.93-3.28-22-9.11c-6.45-6.16-9.41-14.2-9.41-23.4
		c0-8.46,3.03-16.58,8.63-22.66c5.75-6.24,14.07-10.02,22.31-10.02c4.9,0,9.41,1.15,13.91,3.12V50.12z"/>
	<path class="st0" d="M337.7,29.35v34.81c0,7.96-0.31,15.84-6.14,21.84c-4.9,5.09-12.59,6.9-19.43,6.9c-6.84,0-14.54-1.81-19.43-6.9
		c-5.83-5.99-6.14-13.87-6.14-21.84V29.35h15.23v32.59c0,8.05,0.54,16.83,10.34,16.83c9.79,0,10.34-8.78,10.34-16.83V29.35H337.7z"
		/>
	<path class="st0" d="M347.34,29.35h23.32c12.59,0,21.3,6.16,21.3,20.36c0,14.61-7.46,21.02-20.75,21.02h-8.63v20.52h-15.23V29.35z
		 M362.58,57.75h2.56c5.52,0,10.96,0,10.96-7.55c0-7.8-5.05-7.88-10.96-7.88h-2.56V57.75z"/>
	<path class="st0" d="M413.96,91.25h-15.24v-61.9h15.24V91.25z"/>
	<path class="st0" d="M439.14,42.98v10.34h17.18v13.63h-17.18v10.67h18.11v13.63H423.9v-61.9h33.34v13.63H439.14z"/>
	<path class="st0" d="M466.65,29.35h21.61c16.32,0,29.77,13.54,29.77,30.95c0,17.4-13.52,30.95-29.77,30.95h-21.61V29.35z
		 M481.89,77.62h3.42c9.09,0,16.87-5.25,16.87-17.32c0-11.08-6.92-17.32-16.71-17.32h-3.57V77.62z"/>
</g>
<g>
	<path class="st1" d="M566.88,102.81H64.86c-13.62-0.22-26.24-4.52-35.53-12.12c-9.52-7.78-15.11-18.48-16.17-30.95
		C11.2,36.7,28.36,16.36,51.4,14.4c9.89-0.84,19.51,2.22,27.09,8.62c7.59,6.4,12.23,15.36,13.07,25.25
		c1.53,18.04-11.9,33.97-29.94,35.5c-8.37,0.72-16.24-2.23-22-7.5c0.07,0.06,0.15,0.13,0.22,0.19c5.9,4.97,13.37,7.35,21.06,6.7
		c8.36-0.71,15.95-4.64,21.36-11.05c5.41-6.42,8-14.55,7.29-22.92c-1.6-18.82-18.21-32.81-37.03-31.23
		C31.98,19.7,16.69,37.84,18.43,58.38C20.24,79.67,38.15,95.8,59.14,95.8c1.15,0,2.32-0.05,3.49-0.15
		c24.59-2.09,42.9-23.8,40.81-48.39C102.33,34.2,96.2,22.35,86.18,13.9C76.16,5.45,63.45,1.41,50.39,2.52
		C20.79,5.03-1.24,31.16,1.28,60.75C3.93,91.97,30,114.17,64.76,114.73c0,0,470.36-0.02,470.6-0.05
		c12.45-0.33,26.94-6.48,30.85-9.14C570.22,102.82,566.88,102.81,566.88,102.81z"/>
	<g>
		<g>
			<path class="st2" d="M63.02,100.82c-52.49-0.71-47.06-50.66-46.11-57.33h6.01v20.29h2.16v-6.94h6.75V39.22h4.37V28.34h9.53v11.41
				h2.38v24.03h4.76V46.16h11.12v17.08l2.75,4.42V33.35h9.59v38.44h2.47V55.1l2.27-4.94h6.1l3.77,5.07l-4.21,13.35"/>
		</g>
		<path class="st2" d="M91.6,51.67c0,0-1.2,48.8-39.48,48.8l17.13-21.51l11.67-10.94l7.66-13.85L91.6,51.67z"/>
		<polygon class="st2" points="53.72,15.89 69.23,19.54 84.29,30.94 89.31,42.58 90.45,51.93 90.45,56.95 78.36,79.76 18.37,64.25 
			17.91,39.61 30,24.33 41.41,18.17 		"/>
		<path class="st0" d="M21.93,43.72v20.06h2.16v-6.94c0,0,6.75,1.03,6.75,0c0-1.03,0-17.62,0-17.62h4.37V28.34h9.53v11.41h2.38
			v24.03h4.76V46.16h10.64v17.08h2.74v-29.9h10.07v38.44l2.27-2.27V55.1l3.7-3.71h7.4C87.73,32.75,72.3,17.94,53.41,17.94
			c-16.21,0-29.86,10.91-34.04,25.78H21.93z"/>
	</g>
</g>
</svg>
